<svg aria-hidden="true" style="position: absolute; width: 0; height: 0; overflow: hidden;" version="1.1" xmlns="http://www.w3.org/2000/svg" xmlns:xlink="http://www.w3.org/1999/xlink">
<defs>
<symbol id="icon-cart" viewBox="0 0 32 32">
<path fill="#6d8434" style="fill: var(--color1, #6d8434)" d="M16 0c8.837 0 16 7.163 16 16s-7.163 16-16 16c-8.837 0-16-7.163-16-16s7.163-16 16-16z"></path>
<path fill="#e8e8e2" style="fill: var(--color2, #e8e8e2)" d="M10.071 8.376c-0.225 0-0.44 0.089-0.599 0.248s-0.248 0.374-0.248 0.599c0 0.225 0.089 0.44 0.248 0.599s0.374 0.248 0.599 0.248h1.033l0.258 1.035c0.003 0.012 0.005 0.024 0.008 0.036l1.15 4.6-0.756 0.756c-1.067 1.067-0.312 2.892 1.198 2.892h7.273c0.225 0 0.44-0.089 0.599-0.248s0.248-0.374 0.248-0.599c0-0.225-0.089-0.44-0.248-0.599s-0.374-0.248-0.599-0.248h-7.273l0.847-0.847h5.579c0.157-0 0.311-0.044 0.445-0.127s0.242-0.201 0.312-0.342l2.541-5.082c0.064-0.129 0.095-0.273 0.088-0.417s-0.050-0.284-0.126-0.407c-0.076-0.123-0.182-0.224-0.308-0.294s-0.268-0.107-0.412-0.107h-9.080l-0.263-1.053c-0.046-0.183-0.152-0.346-0.301-0.462s-0.332-0.179-0.521-0.179h-1.694zM21.082 21.506c0 0.337-0.134 0.66-0.372 0.898s-0.561 0.372-0.898 0.372c-0.337 0-0.66-0.134-0.898-0.372s-0.372-0.561-0.372-0.898c0-0.337 0.134-0.66 0.372-0.898s0.561-0.372 0.898-0.372c0.337 0 0.66 0.134 0.898 0.372s0.372 0.561 0.372 0.898zM13.035 22.776c0.337 0 0.66-0.134 0.898-0.372s0.372-0.561 0.372-0.898c0-0.337-0.134-0.66-0.372-0.898s-0.562-0.372-0.898-0.372c-0.337 0-0.66 0.134-0.898 0.372s-0.372 0.561-0.372 0.898c0 0.337 0.134 0.66 0.372 0.898s0.561 0.372 0.898 0.372z"></path>
</symbol>
</defs>
</svg>
